<svg xmlns="http://www.w3.org/2000/svg" xml:space="preserve" viewBox="0 0 1000.7 198"><path fill="#333132" d="M225.8 116.5h25.7c-.1 6.6 8.4 13.6 28.7 13.9 19 .1 33.5-2.4 33.5-11.2 0-19.2-85.8 3.3-85.8-39.1 0-20.2 21-32.5 52.3-32.5 32.3 0 54.4 13.6 54.6 34.5H309c.1-6.8-7.2-13.7-27-13.9-17-.2-29.5 2.4-29.5 10.8 0 18.5 85.6-2 85.6 39.4 0 20.3-22.5 32.6-55.8 32.6-34.4 0-56.9-13.7-56.5-34.5zM353 49.9h96.3v20.6h-72v18.3H448v19.4h-70.7V128h72v20.6H353V49.9zm109.9 66.6h25.7c-.2 6.6 8.3 13.6 28.6 13.9 19 .1 33.5-2.4 33.5-11.2 0-19.2-85.7 3.3-85.7-39.1 0-20.2 21-32.5 52.2-32.5 32.3 0 54.4 13.6 54.7 34.5H546c.2-6.8-7.2-13.7-27-13.9-17-.2-29.5 2.4-29.5 10.8 0 18.5 85.6-2 85.6 39.4 0 20.3-22.5 32.6-55.8 32.6-34.4 0-56.9-13.7-56.4-34.5zm121.2 0h25.7c-.1 6.6 8.4 13.6 28.7 13.9 18.9.1 33.4-2.4 33.4-11.2 0-19.2-85.7 3.3-85.7-39.1 0-20.2 21-32.5 52.3-32.5 32.3 0 54.3 13.6 54.6 34.5h-25.8c.1-6.8-7.2-13.7-27-13.9-17-.2-29.5 2.4-29.5 10.8 0 18.5 85.6-2 85.6 39.4 0 20.3-22.5 32.6-55.8 32.6-34.5 0-56.9-13.7-56.5-34.5zm127.2-66.6h24.3v98.8h-24.3V50zm37.4 49.4c0-31 23.9-51.7 62.4-51.7 38.7 0 62.6 20.6 62.6 51.7 0 31-23.9 51.7-62.6 51.7-38.5 0-62.4-20.6-62.4-51.7zm100.7 0c0-20-14.5-31-38.3-31-23.5 0-38 11-38 31s14.5 31 38 31c23.8 0 38.3-11.1 38.3-31zm37.4-49.4h20.3l69.3 62.8V50h24.3v98.8h-20.4L911 86v62.8h-24.3V50z"/><path fill="#00f782" d="M150.7 100.7 113.3 80h25.3a40 40 0 0 0 0-80H50.1A50.2 50.2 0 0 0 0 50.1a54.2 54.2 0 0 0 28 47.4l37.3 20.8H40a40 40 0 0 0 0 80h88.5a50.2 50.2 0 0 0 50.1-50.2 54.2 54.2 0 0 0-27.9-47.4zm-116.8-14A41.9 41.9 0 0 1 12.4 51 38.5 38.5 0 0 1 51 12.4h86.8a28.1 28.1 0 0 1 28.4 26.2c.8 15.9-11.9 29-27.5 29h-50a5.6 5.6 0 0 0-5.6 5.6V114L34 86.7zm93.7 99.1H40.8a28.1 28.1 0 0 1-28.4-26.2 27.6 27.6 0 0 1 27.6-29h50c3 0 5.5-2.4 5.5-5.5V84.3l49.2 27.3a41.9 41.9 0 0 1 21.5 35.5 38.5 38.5 0 0 1-38.6 38.7z"/></svg>